<svg width="40" height="40" viewBox="0 0 40 40" fill="none" xmlns="http://www.w3.org/2000/svg">
<rect width="40" height="40" rx="8" fill="#279F00"/>
<path d="M20.4868 20.8241C17.7962 20.8241 15.5599 18.5953 15.5599 15.9581C15.5599 13.2297 17.7962 11 20.4878 11C23.2708 11 25.4148 13.2287 25.4148 15.9581C25.4053 18.6542 23.2061 20.8336 20.503 20.825C20.4973 20.825 20.4926 20.825 20.4868 20.8241ZM20.4868 13.8662C19.3477 13.8662 18.481 14.8209 18.481 15.9591C18.481 17.0953 19.3477 17.9598 20.4878 17.9598C21.6736 17.9598 22.4946 17.0953 22.4946 15.9591C22.4956 14.82 21.6736 13.8662 20.4868 13.8662ZM22.4489 24.873L25.2329 27.5568C25.7805 28.1468 25.7805 29.0113 25.2329 29.5575C24.6405 30.1475 23.7271 30.1475 23.2708 29.5575L20.4878 26.8281L17.7962 29.5575C17.5228 29.8302 17.1571 29.966 16.7456 29.966C16.4266 29.966 16.0618 29.8292 15.7418 29.5575C15.1941 29.0113 15.1941 28.1468 15.7418 27.5559L18.5705 24.8721C17.5495 24.5709 16.5685 24.1425 15.6532 23.6C14.9684 23.2362 14.8322 22.327 15.197 21.6439C15.6532 20.9618 16.4742 20.7804 17.2047 21.2354C19.221 22.4628 21.7574 22.4628 23.7737 21.2354C24.5043 20.7804 25.37 20.9618 25.7805 21.6439C26.192 22.327 26.0082 23.2352 25.3691 23.6C24.5033 24.1463 23.4994 24.5557 22.4498 24.874L22.4489 24.873Z" fill="white"/>
</svg>
