<svg width="40" height="40" viewBox="0 0 40 40" fill="none" xmlns="http://www.w3.org/2000/svg">
<rect width="40" height="40" rx="8" fill="url(#paint0_linear_448_10591)"/>
<path d="M10.802 34.8432C10.6297 34.8432 10.4621 34.7869 10.3247 34.6828C10.226 34.6093 10.1459 34.5137 10.0909 34.4036C10.0358 34.2935 10.0074 34.1721 10.0078 34.049V6.79384C10.0079 6.67399 10.0351 6.55572 10.0874 6.44788C10.1397 6.34005 10.2158 6.24545 10.3098 6.17118C10.4035 6.09659 10.513 6.04438 10.63 6.01853C10.7469 5.99269 10.8683 5.99389 10.9847 6.02204L17.3231 7.51343C17.4967 7.55514 17.6512 7.65384 17.7621 7.79376C17.8729 7.93367 17.9337 8.10672 17.9346 8.28523V32.2407C17.9346 32.4136 17.8782 32.5819 17.7739 32.7198C17.6696 32.8578 17.5231 32.9579 17.3566 33.005L11.0182 34.8096C10.9482 34.8314 10.8753 34.8427 10.802 34.8432ZM11.5924 7.7968V32.9976L16.3462 31.6441V8.92652L11.5924 7.7968Z" fill="white"/>
<path d="M21.0706 31.4801C19.1981 31.4814 17.3559 31.0075 15.7166 30.1027C14.0773 29.1978 12.6945 27.8916 11.6977 26.3065C10.7009 24.7214 10.1228 22.9092 10.0175 21.0397C9.91222 19.1702 10.2832 17.3045 11.0957 15.6175C11.9082 13.9305 13.1356 12.4773 14.663 11.3941C16.1904 10.3109 17.9677 9.63318 19.8285 9.42432C21.6893 9.21546 23.5726 9.48235 25.3021 10.2C27.0316 10.9176 28.5507 12.0625 29.7169 13.5275C29.8462 13.6886 29.9073 13.8939 29.8871 14.0994C29.8668 14.305 29.767 14.4945 29.6088 14.6273L25.377 18.1992C25.0642 18.4527 24.6703 18.5844 24.268 18.57C23.8657 18.5556 23.4822 18.3961 23.1884 18.1209C22.8865 17.8394 22.5315 17.6209 22.1442 17.4781C21.7569 17.3353 21.345 17.2712 20.9326 17.2895C20.1636 17.3303 19.4361 17.6507 18.8867 18.1904C18.3374 18.7301 18.0042 19.4519 17.9499 20.2201C17.9079 20.8453 18.0547 21.4688 18.3713 22.0097C18.6878 22.5505 19.1595 22.9838 19.7253 23.2534C20.291 23.523 20.9247 23.6165 21.5441 23.5217C22.1636 23.4269 22.7403 23.1483 23.1996 22.7219C23.4895 22.4489 23.8681 22.2896 24.266 22.2732C24.6639 22.2567 25.0543 22.3843 25.3658 22.6324L29.6946 26.07C29.7771 26.1345 29.8461 26.2146 29.8975 26.3058C29.949 26.397 29.9819 26.4974 29.9943 26.6014C30.0068 26.7053 29.9986 26.8107 29.9702 26.9115C29.9418 27.0123 29.8937 27.1065 29.8288 27.1886C28.7978 28.5298 27.4711 29.6149 25.9519 30.3593C24.4328 31.1037 22.7623 31.4872 21.0706 31.4801ZM21.0706 10.9436C19.4929 10.9417 17.9396 11.3337 16.5517 12.0841C15.1638 12.8345 13.9852 13.9194 13.1228 15.2406C12.2603 16.5618 11.7413 18.0774 11.6129 19.6499C11.4845 21.2224 11.7506 22.8021 12.3873 24.2457C13.0239 25.6893 14.0108 26.9512 15.2586 27.9168C16.5063 28.8824 17.9754 29.5213 19.5325 29.7754C21.0897 30.0296 22.6857 29.8909 24.1757 29.3722C25.6657 28.8534 27.0026 27.9708 28.0652 26.8046L24.374 23.874C24.3591 23.8625 24.3407 23.8563 24.3218 23.8563C24.303 23.8563 24.2846 23.8625 24.2696 23.874C23.5788 24.5179 22.7106 24.9397 21.7774 25.0846C20.8442 25.2296 19.889 25.091 19.0354 24.6869C18.1818 24.2829 17.4692 23.6318 16.9898 22.8181C16.5105 22.0045 16.2864 21.0656 16.3466 20.1231C16.4266 18.9588 16.9314 17.8645 17.7652 17.0479C18.599 16.2314 19.7036 15.7494 20.8693 15.6937C21.4898 15.665 22.1098 15.7604 22.693 15.9742C23.2762 16.188 23.811 16.516 24.2659 16.939C24.2789 16.9543 24.2968 16.9645 24.3166 16.9679C24.3363 16.9713 24.3567 16.9677 24.374 16.9576L27.972 13.9189C27.0874 12.976 26.0181 12.2252 24.8308 11.7134C23.6435 11.2015 22.3635 10.9395 21.0706 10.9436Z" fill="white"/>
<defs>
<linearGradient id="paint0_linear_448_10591" x1="40" y1="12.8276" x2="2.09443e-09" y2="12.8276" gradientUnits="userSpaceOnUse">
<stop stop-color="#079438"/>
<stop offset="1" stop-color="#48C448"/>
</linearGradient>
</defs>
</svg>
