<svg width="40" height="40" viewBox="0 0 40 40" fill="none" xmlns="http://www.w3.org/2000/svg">
<rect width="40" height="40" rx="8" fill="#279F00"/>
<path d="M26.613 12.1998L9.73942 19.458C9.73942 19.458 8.94166 19.7577 9.00341 20.3105C9.06682 20.8643 9.71781 21.1176 9.71781 21.1176L13.9636 22.6841C13.9636 22.6841 15.2451 27.2919 15.4973 28.1687C15.7496 29.043 15.9519 29.0636 15.9519 29.0636C16.1868 29.1755 16.4003 28.9973 16.4003 28.9973L19.1434 26.2558L23.4186 29.8498C24.575 30.4028 24.9959 29.2506 24.9959 29.2506L28 12.6384C28 11.5319 26.613 12.1998 26.613 12.1998ZM23.6257 27.9146L19.052 24.0707L17.6327 25.4887L17.9448 22.4718L24.0414 16.5L15.731 21.5992L12.0448 20.2393L26.1088 14.1892L23.6257 27.9146Z" fill="white"/>
</svg>
