<svg width="40" height="40" viewBox="0 0 40 40" fill="none" xmlns="http://www.w3.org/2000/svg">
<rect width="40" height="40" rx="8" fill="#279F00"/>
<path d="M28.5644 15.7449C28.6971 15.3152 28.5644 15 27.9367 15H25.8573C25.3282 15 25.0865 15.2726 24.9537 15.5721C24.9537 15.5721 23.8965 18.085 22.3984 19.7144C21.9148 20.1885 21.6939 20.3383 21.4303 20.3383C21.2985 20.3383 21.1069 20.1885 21.1069 19.7588V15.7449C21.1069 15.2292 20.9543 15 20.5134 15H17.246C16.916 15 16.7169 15.2384 16.7169 15.4658C16.7169 15.9538 17.4659 16.0665 17.5428 17.4418V20.4251C17.5428 21.0786 17.4223 21.1978 17.1568 21.1978C16.4523 21.1978 14.738 18.6756 13.7206 15.7884C13.5225 15.2274 13.3224 15.0009 12.7914 15.0009H10.713C10.1185 15.0009 10 15.2736 10 15.573C10 16.1109 10.7045 18.7726 13.2816 22.293C14.9997 24.6969 17.4185 26 19.6221 26C20.9429 26 21.106 25.7107 21.106 25.2116V23.3946C21.106 22.8161 21.2321 22.6996 21.6503 22.6996C21.9575 22.6996 22.4865 22.8512 23.7201 24.0092C25.1291 25.3826 25.3624 25.9991 26.1541 25.9991H28.2325C28.8261 25.9991 29.1228 25.7098 28.9522 25.1386C28.7654 24.5702 28.0922 23.7431 27.199 22.7643C26.7135 22.2061 25.9882 21.6054 25.7672 21.305C25.4591 20.9177 25.5482 20.7468 25.7672 20.403C25.7682 20.4039 28.3008 16.927 28.5644 15.7449Z" fill="white"/>
</svg>
