<svg width="40" height="40" viewBox="0 0 40 40" fill="none" xmlns="http://www.w3.org/2000/svg">
<rect width="40" height="40" rx="8" fill="#279F00"/>
<path d="M29.6135 16.0439C29.3951 15.2479 28.7543 14.6198 27.9408 14.4054C26.4541 14.0065 20.5066 14 20.5066 14C20.5066 14 14.56 13.9935 13.0724 14.3748C12.2749 14.5873 11.6161 15.2293 11.3959 16.0244C11.0038 17.4773 11 20.4907 11 20.4907C11 20.4907 10.9962 23.519 11.3854 24.957C11.6038 25.7521 12.2446 26.3802 13.0591 26.5946C14.5609 26.9935 20.4923 27 20.4923 27C20.4923 27 26.4399 27.0065 27.9265 26.6261C28.7392 26.4127 29.3828 25.7855 29.604 24.9904C29.997 23.5385 29.9999 20.526 29.9999 20.526C29.9999 20.526 30.0188 17.4968 29.6135 16.0439ZM18.6041 23.2824L18.6089 17.7157L23.552 20.5037L18.6041 23.2824Z" fill="white"/>
</svg>
